<svg width="21" height="36" viewBox="0 0 21 36" fill="none" xmlns="http://www.w3.org/2000/svg">
<path d="M0 4.19056L0.0102194 34.9516C0.0100923 35.1335 0.0552001 35.3123 0.141103 35.4705C0.227006 35.6286 0.350742 35.7606 0.500132 35.8534C0.649522 35.9462 0.819415 35.9967 0.993089 35.9998C1.16676 36.003 1.33823 35.9587 1.49061 35.8714L11.0029 22.8158L19.5252 33.3967C19.6776 33.484 19.849 33.5282 20.0227 33.5251C20.1964 33.5219 20.3663 33.4714 20.5157 33.3786C20.6651 33.2858 20.7888 33.1538 20.8747 32.9957C20.9606 32.8376 21.0057 32.6588 21.0056 32.4768V4.19056C21.0056 3.07915 20.584 2.01327 19.8337 1.22739C19.0833 0.441504 18.0657 0 17.0045 0H4.00106C2.93991 0 1.92223 0.441504 1.17188 1.22739C0.421539 2.01327 0 3.07915 0 4.19056Z" fill="#5C5C5C" fill-opacity="0.32"/>
<path d="M1.01104 35L1.01045 35.032L1.01047 35.032L1.01104 35ZM1.01104 35C1.00966 35 1.00835 35 1.0071 35.0001L1.01104 35ZM1.01045 35.0321L1.01047 35.032L1.01043 35.0344L1.01041 35.0344L1.01045 35.0321ZM11.7789 22.1886L10.9602 21.1719L10.1917 22.227L1.01018 34.832L1 4.19056C1 4.19051 1 4.19027 1 4.19023C1.00004 3.32946 1.32688 2.51298 1.89493 1.91785C2.46151 1.32428 3.21976 1 4 1H17C17.7802 1 18.5385 1.32428 19.1051 1.91785C19.6732 2.51301 20 3.32974 20 4.19056V32.3983L11.7789 22.1886ZM19.9998 32.5596L19.9998 32.5597L19.9998 32.5573L19.9998 32.5596Z" stroke="#FFF8F8" stroke-width="2"/>
</svg>
