<svg width="26" height="23" viewBox="0 0 26 23" fill="none" xmlns="http://www.w3.org/2000/svg">
<path d="M7.6 1C3.955 1 1 3.955 1 7.6C1 14.2 8.8 20.2 13 21.5956C17.2 20.2 25 14.2 25 7.6C25 3.955 22.045 1 18.4 1C16.168 1 14.194 2.1082 13 3.8044C12.3914 2.93752 11.5829 2.23005 10.6429 1.74189C9.70294 1.25373 8.65918 0.999253 7.6 1Z" fill="#5C5C5C" fill-opacity="0.32" stroke="#FFF8F8" stroke-width="2" stroke-linecap="round" stroke-linejoin="round"/>
<path d="M7.6 1C3.955 1 1 3.955 1 7.6C1 14.2 8.8 20.2 13 21.5956C17.2 20.2 25 14.2 25 7.6C25 3.955 22.045 1 18.4 1C16.168 1 14.194 2.1082 13 3.8044C12.3914 2.93752 11.5829 2.23005 10.6429 1.74189C9.70294 1.25373 8.65918 0.999253 7.6 1Z" stroke="#FFF8F8" stroke-width="2" stroke-linecap="round" stroke-linejoin="round"/>
</svg>
