<svg width="32" height="32" viewBox="0 0 32 32" fill="none" xmlns="http://www.w3.org/2000/svg">
<path fill-rule="evenodd" clip-rule="evenodd" d="M7.11089 2.69649C9.74208 0.938384 12.8355 0 16 0C20.242 0.00483968 24.3089 1.6921 27.3084 4.69164C30.3079 7.69117 31.9952 11.758 32 16C32 19.1645 31.0617 22.2579 29.3035 24.8891C27.5454 27.5203 25.0466 29.5711 22.123 30.7821C19.1993 31.9931 15.9823 32.3099 12.8786 31.6926C9.77488 31.0752 6.92394 29.5513 4.6863 27.3137C2.44866 25.0761 0.924807 22.2251 0.307443 19.1214C-0.309921 16.0177 0.00693255 12.8007 1.21794 9.87706C2.42894 6.95345 4.4797 4.45459 7.11089 2.69649ZM23.4331 22.219C24.5002 23.272 25.111 24.7021 25.1337 26.2011H25.1349C27.2074 24.3506 28.6689 21.9141 29.3259 19.2145C29.983 16.5148 29.8045 13.6792 28.8142 11.0833C27.8238 8.48728 26.0683 6.25333 23.7802 4.67722C21.492 3.1011 18.7791 2.25717 16.0006 2.25717C13.2221 2.25717 10.5092 3.1011 8.22101 4.67722C5.93284 6.25333 4.17736 8.48728 3.18703 11.0833C2.19669 13.6792 2.01822 16.5148 2.67525 19.2145C3.33227 21.9141 4.7938 24.3506 6.8663 26.2011C6.88908 24.7021 7.49983 23.272 8.56697 22.219C9.63412 21.1659 11.0722 20.5742 12.5714 20.5714H19.4286C20.9278 20.5742 22.3659 21.1659 23.4331 22.219ZM12.8253 7.82021C13.765 7.19232 14.8698 6.85718 16 6.85718C17.5155 6.85718 18.969 7.45922 20.0406 8.53085C21.1123 9.60249 21.7143 11.0559 21.7143 12.5715C21.7143 13.7016 21.3792 14.8064 20.7513 15.7461C20.1234 16.6859 19.2309 17.4183 18.1868 17.8508C17.1426 18.2833 15.9937 18.3964 14.8852 18.1759C13.7767 17.9555 12.7585 17.4112 11.9594 16.6121C11.1602 15.8129 10.616 14.7947 10.3955 13.6863C10.175 12.5778 10.2882 11.4288 10.7207 10.3847C11.1532 9.34055 11.8856 8.4481 12.8253 7.82021Z" fill="#FFF8F8"/>
</svg>
