<svg width="18" height="24" viewBox="0 0 18 24" fill="none" xmlns="http://www.w3.org/2000/svg">
<path d="M8.89919 16.2132C8.58401 16.2132 8.32 16.1064 8.10716 15.8928C7.89358 15.68 7.78679 15.416 7.78679 15.1008V3.78216L6.78563 4.78331C6.58169 4.98725 6.32695 5.08922 6.02141 5.08922C5.71513 5.08922 5.45075 4.97798 5.22827 4.7555C5.02433 4.53302 4.92236 4.26864 4.92236 3.96236C4.92236 3.65683 5.02433 3.40209 5.22827 3.19815L8.12051 0.30591C8.21321 0.21321 8.32927 0.13905 8.46869 0.0834299C8.60737 0.02781 8.75087 0 8.89919 0C9.04751 0 9.19138 0.02781 9.3308 0.0834299C9.46948 0.13905 9.58517 0.21321 9.67787 0.30591L12.5701 3.19815C12.7926 3.42063 12.9038 3.68946 12.9038 4.00464C12.9038 4.31981 12.7926 4.57937 12.5701 4.78331C12.3476 4.98725 12.0836 5.08922 11.7781 5.08922C11.4718 5.08922 11.2167 4.98725 11.0127 4.78331L10.0116 3.78216V15.1008C10.0116 15.416 9.90517 15.68 9.69233 15.8928C9.47875 16.1064 9.21437 16.2132 8.89919 16.2132ZM2.2248 24C1.61298 24 1.08941 23.7823 0.65409 23.347C0.21803 22.911 0 22.387 0 21.7752V9.53882C0 8.927 0.21803 8.40306 0.65409 7.967C1.08941 7.53168 1.61298 7.31402 2.2248 7.31402H4.44959C4.76477 7.31402 5.02915 7.42044 5.24273 7.63328C5.45557 7.84686 5.56199 8.11124 5.56199 8.42642C5.56199 8.7416 5.45557 9.00561 5.24273 9.21845C5.02915 9.43203 4.76477 9.53882 4.44959 9.53882H2.2248V21.7752H15.5736V9.53882H13.3488C13.0336 9.53882 12.7696 9.43203 12.5568 9.21845C12.3432 9.00561 12.2364 8.7416 12.2364 8.42642C12.2364 8.11124 12.3432 7.84686 12.5568 7.63328C12.7696 7.42044 13.0336 7.31402 13.3488 7.31402H15.5736C16.1854 7.31402 16.7093 7.53168 17.1454 7.967C17.5807 8.40306 17.7984 8.927 17.7984 9.53882V21.7752C17.7984 22.387 17.5807 22.911 17.1454 23.347C16.7093 23.7823 16.1854 24 15.5736 24H2.2248Z" fill="#FFF8F8"/>
</svg>
